<svg width="278" height="114" viewBox="0 0 278 114" fill="none" xmlns="http://www.w3.org/2000/svg">
<path fill-rule="evenodd" clip-rule="evenodd" d="M10.2144 110.392H1.85327V112.018H48.1512V82.7584H46.7785C46.7785 82.7584 46.7785 99.6389 41.1629 105.141C36.4207 109.892 31.4291 110.267 23.3176 110.267V56.3748C23.3176 56.3748 28.9332 55.9997 31.6786 58.7506C35.9216 63.002 36.4207 68.5038 36.4207 76.1313H37.9183V34.8678H36.4207C36.4207 42.4953 36.0464 47.9971 31.6786 52.2485C28.9332 54.9994 23.3176 54.6243 23.3176 54.6243V3.48259C31.4291 3.48259 35.2976 3.98275 40.0397 8.60926C45.5306 14.1111 45.6554 30.9916 45.6554 30.9916H47.0281V1.85706H1.85327V3.48259H10.2144V110.392Z" fill="black"/>
<path fill-rule="evenodd" clip-rule="evenodd" d="M100.689 3.48259V110.392C108.8 110.392 113.792 109.892 118.534 105.266C124.025 99.764 124.15 82.8835 124.15 82.8835H125.522V112.143H79.2244V110.517H87.5854V3.35755H79.2244V1.85706H108.301V3.48259H100.689Z" fill="black"/>
<path fill-rule="evenodd" clip-rule="evenodd" d="M175.065 3.48259V110.392C183.176 110.392 188.168 109.892 192.91 105.266C198.401 99.764 198.526 82.8835 198.526 82.8835H199.899V112.143H153.601V110.517H161.962V3.35755H153.601V1.85706H182.677V3.48259H175.065Z" fill="black"/>
<path fill-rule="evenodd" clip-rule="evenodd" d="M238.21 110.392H229.849V112.018H276.147V82.7584H274.774C274.774 82.7584 274.774 99.6389 269.158 105.141C264.416 109.892 259.424 110.267 251.313 110.267V56.3748C251.313 56.3748 256.929 55.9997 259.674 58.7506C263.917 63.002 264.416 68.5038 264.416 76.1313H265.914V34.8678H264.416C264.416 42.4953 264.042 47.9971 259.674 52.2485C256.929 54.9994 251.313 54.6243 251.313 54.6243V3.48259C259.424 3.48259 263.293 3.98275 268.035 8.60926C273.526 14.1111 273.651 30.9916 273.651 30.9916H275.023V1.85706H229.849V3.48259H238.21V110.392Z" fill="black"/>
</svg>
